<svg width="107" height="107" viewBox="0 0 107 107" fill="none" xmlns="http://www.w3.org/2000/svg">
<path d="M40.125 17.8333L51.2709 42.3542L75.7917 53.5L51.2709 64.6458L40.125 89.1667L28.9792 64.6458L4.45837 53.5L28.9792 42.3542L40.125 17.8333ZM40.125 39.3671L35.6667 49.0417L25.9921 53.5L35.6667 57.9583L40.125 67.6329L44.5834 57.9583L54.258 53.5L44.5834 49.0417L40.125 39.3671ZM84.7084 40.125L79.0909 27.9092L66.875 22.2917L79.0909 16.7188L84.7084 4.45833L90.2813 16.7188L102.542 22.2917L90.2813 27.9092L84.7084 40.125ZM84.7084 102.542L79.0909 90.3258L66.875 84.7083L79.0909 79.1354L84.7084 66.875L90.2813 79.1354L102.542 84.7083L90.2813 90.3258L84.7084 102.542Z" fill="#FBFEF9"/>
</svg>
